<svg width="314" height="36" viewBox="0 0 314 36" fill="none" xmlns="http://www.w3.org/2000/svg">
<path d="M32.3846 18.5281L27.0835 24.0963L38.9383 36H34.059C31.5035 36 29.0505 35.0072 27.2294 33.236L17.8312 24.0954L27.8543 14.2073L22.3606 8.73509L11.7193 19.2594C9.89385 21.0649 7.41561 22.0799 4.83148 22.0799H0L22.3606 0L32.3837 9.69613L42.3114 0L64.2857 22.0799H59.6131C56.9925 22.0799 54.483 21.0366 52.6515 19.1857L42.3114 8.73595L36.7213 14.2081L51.4675 28.8964H46.7801C44.1682 28.8964 41.6665 27.8599 39.8358 26.0201L32.3846 18.5281Z" fill="#36621F"/>
<path d="M80.2891 25.8478V6.65992C80.2891 6.56364 80.3669 6.48633 80.4639 6.48633H86.6053C86.6788 6.48633 86.7434 6.53154 86.7699 6.6001L92.2121 21.1974H92.3605L97.7132 6.6001C97.7381 6.53154 97.8042 6.48633 97.8777 6.48633H103.721C103.818 6.48633 103.896 6.56364 103.896 6.65992V25.8478C103.896 25.9441 103.818 26.0214 103.721 26.0214H102.154C100.899 26.0214 99.8872 25.0018 99.9062 23.7546L100.106 10.9835C100.107 10.8873 100.028 10.807 99.9312 10.807C99.8592 10.807 99.7946 10.8508 99.7682 10.9179L93.894 25.9106C93.8676 25.9777 93.803 26.0214 93.731 26.0214H90.3349C90.2629 26.0214 90.1968 25.9777 90.1718 25.9106L84.3858 10.9194C84.3594 10.8523 84.2948 10.8085 84.2228 10.8085C84.1258 10.8085 84.0465 10.8873 84.048 10.985L84.2492 23.7983C84.2683 25.0207 83.2753 26.0229 82.0429 26.0229H80.4639C80.3669 26.0214 80.2891 25.9441 80.2891 25.8478Z" fill="#36621F"/>
<path d="M111.774 26.4351C110.88 26.4351 110.095 26.2615 109.42 25.9173C108.744 25.5715 108.218 25.0741 107.84 24.4221C107.463 23.77 107.273 22.9721 107.273 22.0239C107.273 21.1764 107.438 20.4602 107.766 19.8782C108.093 19.2962 108.581 18.8279 109.226 18.472C109.87 18.1175 110.65 17.8214 111.566 17.5836C112.479 17.3473 113.553 17.1402 114.784 16.9622C115.399 16.863 115.912 16.7697 116.319 16.6807C116.726 16.5917 117.028 16.4429 117.228 16.2372C117.426 16.0301 117.526 15.7296 117.526 15.3343C117.526 14.7814 117.327 14.3088 116.93 13.9135C116.532 13.5197 115.897 13.3213 115.022 13.3213C114.465 13.3213 113.944 13.4146 113.458 13.6013C112.97 13.7895 112.553 14.0856 112.206 14.4897C112.203 14.4941 112.199 14.4985 112.196 14.5014C111.494 15.3285 110.382 15.6888 109.34 15.3708L107.66 14.8587C107.898 14.0492 108.236 13.349 108.673 12.7567C109.11 12.1645 109.646 11.6671 110.283 11.2616C110.919 10.8575 111.655 10.5555 112.49 10.3586C113.324 10.1617 114.208 10.0625 115.142 10.0625C116.652 10.0625 117.889 10.3047 118.853 10.7875C119.816 11.2703 120.536 12.0216 121.014 13.0368C121.491 14.0535 121.729 15.3606 121.729 16.9593V19.5937C121.729 20.2852 121.744 20.9897 121.773 21.7103C121.802 22.4309 121.848 23.1515 121.907 23.8707C121.967 24.5913 122.036 25.3061 122.115 26.0165H119.978C119.001 26.0165 118.182 25.2842 118.079 24.32L118.077 24.301C118.007 23.6504 117.952 23.0086 117.913 22.377H117.406C117.108 23.1063 116.701 23.7832 116.184 24.4046C115.667 25.026 115.037 25.519 114.29 25.8852C113.547 26.2528 112.707 26.4351 111.774 26.4351ZM113.591 23.3572C113.948 23.3572 114.326 23.2887 114.724 23.1501C115.122 23.0115 115.499 22.8204 115.856 22.5724C116.213 22.3259 116.551 22.0152 116.87 21.6403C117.187 21.2654 117.426 20.8409 117.585 20.3683V17.9118L118.242 18.03C117.904 18.2867 117.491 18.488 117.005 18.6368C116.517 18.7842 116.021 18.8994 115.514 18.9767C115.007 19.0555 114.505 19.1444 114.008 19.2436C113.512 19.3428 113.065 19.4654 112.667 19.6142C112.269 19.7615 111.962 19.9745 111.743 20.2502C111.524 20.5259 111.416 20.9007 111.416 21.3748C111.416 21.986 111.614 22.4703 112.012 22.8248C112.409 23.1793 112.936 23.3572 113.591 23.3572Z" fill="#36621F"/>
<path d="M124.271 32C124.132 32 124.008 31.9956 123.898 31.9854C123.788 31.9752 123.665 31.9606 123.525 31.9402L123.471 31.3873C123.336 29.9972 123.983 28.6741 125.107 27.8354C125.112 27.8325 125.115 27.8295 125.119 27.8266C125.507 27.5305 125.701 26.9485 125.701 26.0805V10.4811H129.993V26.1972C129.993 27.2038 129.868 28.0775 129.62 28.8171C129.371 29.5567 129.009 30.1591 128.531 30.623C128.054 31.0868 127.459 31.4326 126.744 31.6587C126.028 31.8848 125.206 32 124.271 32ZM127.817 8.14275C126.983 8.14275 126.343 7.96478 125.895 7.61031C125.448 7.25585 125.225 6.7526 125.225 6.10055C125.225 5.41058 125.444 4.8869 125.88 4.53243C126.316 4.17797 126.962 4 127.817 4C128.652 4 129.298 4.17797 129.755 4.53243C130.212 4.8869 130.441 5.41058 130.441 6.10055C130.441 6.77156 130.217 7.27919 129.771 7.62491C129.323 7.97062 128.672 8.14275 127.817 8.14275Z" fill="#36621F"/>
<path d="M141.177 26.4351C139.905 26.4351 138.762 26.2572 137.748 25.9027C136.735 25.5482 135.88 25.0348 135.185 24.3637C134.489 23.6927 133.959 22.8686 133.59 21.8927C133.223 20.9153 133.039 19.7965 133.039 18.5333C133.039 17.2904 133.218 16.1497 133.575 15.114C133.932 14.0784 134.439 13.1856 135.096 12.4358C135.751 11.6861 136.576 11.104 137.569 10.6898C138.562 10.2755 139.655 10.0684 140.848 10.0684C142.08 10.0684 143.157 10.2653 144.082 10.6606C145.006 11.0559 145.776 11.6321 146.393 12.3921C147.008 13.1521 147.465 14.0842 147.763 15.1899C148.062 16.2956 148.17 17.5866 148.091 19.0672L135.811 19.1561V16.847L145.617 16.7288L144.126 17.8841C144.245 16.8587 144.166 16.0097 143.888 15.3387C143.609 14.6677 143.202 14.1688 142.666 13.8435C142.13 13.5182 141.544 13.3548 140.908 13.3548C140.153 13.3548 139.496 13.5576 138.941 13.9617C138.384 14.3657 137.942 14.9492 137.615 15.7077C137.287 16.4677 137.123 17.3809 137.123 18.4457C137.123 20.1422 137.49 21.3807 138.226 22.1596C138.96 22.9386 139.934 23.3281 141.146 23.3281C141.703 23.3281 142.174 23.2537 142.562 23.1063C142.95 22.959 143.271 22.7665 143.53 22.5287C143.788 22.2924 143.993 22.0254 144.141 21.7293C144.142 21.7264 144.144 21.7235 144.145 21.7206C144.4 21.2158 144.956 20.9358 145.512 21.0554L148.239 21.6403C148.06 22.3711 147.797 23.0319 147.449 23.6242C147.101 24.2164 146.64 24.7197 146.062 25.1339C145.487 25.5482 144.796 25.8691 143.991 26.0952C143.189 26.3213 142.251 26.4351 141.177 26.4351Z" fill="#36621F"/>
<path d="M157.489 26.4351C156.436 26.4351 155.487 26.3359 154.643 26.139C153.798 25.9421 153.068 25.6562 152.453 25.2813C151.837 24.9064 151.339 24.4571 150.962 23.9349C150.584 23.4127 150.326 22.835 150.188 22.2034L151.817 21.5207C152.608 21.1896 153.523 21.3938 154.096 22.0298L154.107 22.0415C154.455 22.4266 154.936 22.7329 155.552 22.959C156.167 23.1866 156.912 23.2989 157.788 23.2989C158.682 23.2989 159.377 23.1661 159.873 22.8992C160.37 22.6322 160.618 22.253 160.618 21.7599C160.618 21.3851 160.479 21.0889 160.201 20.8716C159.922 20.6542 159.521 20.4675 158.994 20.3085C158.466 20.151 157.816 19.9934 157.041 19.8344C156.305 19.6973 155.561 19.5194 154.806 19.302C154.051 19.0847 153.34 18.7988 152.674 18.4443C152.009 18.0898 151.482 17.6201 151.095 17.0381C150.707 16.4561 150.514 15.7209 150.514 14.8325C150.514 13.8843 150.766 13.0616 151.273 12.3615C151.78 11.6613 152.535 11.104 153.538 10.6898C154.541 10.2755 155.749 10.0684 157.159 10.0684C158.45 10.0684 159.578 10.2419 160.542 10.5862C161.505 10.9319 162.304 11.425 162.941 12.0668C163.577 12.7086 163.994 13.473 164.192 14.3599L162.495 14.9259C161.655 15.2059 160.746 14.9288 160.163 14.2665C160.16 14.2636 160.157 14.2592 160.154 14.2563C159.846 13.9106 159.439 13.6451 158.932 13.4569C158.425 13.2702 157.833 13.1754 157.159 13.1754C156.325 13.1754 155.669 13.314 155.192 13.5897C154.715 13.8669 154.477 14.2403 154.477 14.7144C154.477 15.0892 154.631 15.3956 154.938 15.6319C155.246 15.8682 155.678 16.0564 156.235 16.195C156.792 16.3335 157.447 16.4911 158.202 16.669C158.976 16.8266 159.741 17.0089 160.496 17.2161C161.251 17.4232 161.937 17.6901 162.553 18.0154C163.168 18.3407 163.656 18.7813 164.013 19.3326C164.37 19.8855 164.549 20.6061 164.549 21.493C164.549 22.5199 164.276 23.4083 163.729 24.1566C163.183 24.9064 162.382 25.4738 161.331 25.8589C160.282 26.2426 158.999 26.4351 157.489 26.4351Z" fill="#36621F"/>
<path d="M173.262 26.3757C171.534 26.3757 170.253 25.9176 169.417 25.0001C168.581 24.0826 168.165 22.6166 168.165 20.605V13.857H165.93L165.962 12.0219C165.977 11.1671 166.679 10.483 167.54 10.483C168.136 10.483 168.587 10.394 168.895 10.2161C169.204 10.0381 169.398 9.7128 169.477 9.23872L169.834 7.01855H172.278V10.4815H176.243V13.9445H172.278V20.427C172.278 21.1185 172.447 21.6319 172.785 21.966C173.123 22.3015 173.63 22.4692 174.305 22.4692C174.703 22.4692 175.071 22.424 175.409 22.3365C175.746 22.2475 176.053 22.1148 176.332 21.9368V24.3816C176.332 25.3458 175.613 26.1729 174.649 26.2852C174.643 26.2852 174.639 26.2867 174.633 26.2867C174.117 26.345 173.661 26.3757 173.262 26.3757Z" fill="#36621F"/>
<path d="M181.43 8.14275C180.596 8.14275 179.955 7.96478 179.507 7.61031C179.061 7.25585 178.836 6.75259 178.836 6.10055C178.836 5.41058 179.055 4.8869 179.493 4.53243C179.929 4.17797 180.575 4 181.43 4C182.264 4 182.911 4.17797 183.367 4.53243C183.824 4.8869 184.053 5.41058 184.053 6.10055C184.053 6.77156 183.83 7.27919 183.382 7.62491C182.936 7.97062 182.283 8.14275 181.43 8.14275ZM179.284 26.0207V10.4811H183.576V22.8072C183.576 24.5824 182.128 26.0207 180.34 26.0207H179.284Z" fill="#36621F"/>
<path d="M194.756 26.4327C193.404 26.4327 192.226 26.2401 191.224 25.855C190.221 25.4699 189.387 24.9229 188.721 24.2125C188.056 23.5021 187.549 22.659 187.201 21.6816C186.853 20.7043 186.68 19.6249 186.68 18.4404C186.68 17.2165 186.853 16.0919 187.201 15.0664C187.549 14.0409 188.06 13.1569 188.736 12.4174C189.412 11.6778 190.246 11.1001 191.239 10.6859C192.232 10.2716 193.365 10.0645 194.637 10.0645C195.909 10.0645 197.016 10.2716 197.961 10.6859C198.904 11.1001 199.675 11.6763 200.27 12.4174C200.866 13.1569 201.263 14.0205 201.463 15.0066L199.439 15.6717C198.501 15.9795 197.497 15.5696 197 14.7236C196.997 14.7192 196.996 14.7148 196.993 14.7105C196.734 14.2772 196.386 13.9461 195.95 13.7185C195.512 13.4924 194.995 13.3786 194.4 13.3786C193.864 13.3786 193.387 13.4881 192.97 13.7039C192.552 13.9213 192.194 14.2466 191.897 14.6813C191.599 15.116 191.376 15.6338 191.227 16.2348C191.079 16.8358 191.004 17.5229 191.004 18.2916C191.004 19.3565 191.148 20.255 191.436 20.9858C191.724 21.7167 192.151 22.2783 192.718 22.6736C193.285 23.0689 193.985 23.2658 194.819 23.2658C195.614 23.2658 196.245 23.1083 196.711 22.7932C197.178 22.4781 197.53 22.0828 197.768 21.6087C197.771 21.6043 197.773 21.6 197.776 21.5941C198.19 20.7627 199.102 20.3017 200.014 20.5015L201.942 20.926C201.842 21.6962 201.633 22.4168 201.316 23.0864C200.997 23.7574 200.545 24.3438 199.96 24.8471C199.374 25.3503 198.653 25.7398 197.799 26.0155C196.941 26.2941 195.928 26.4327 194.756 26.4327Z" fill="#36621F"/>
<path d="M211.492 26.0214V6.48633H215.784V26.0214H211.492ZM214.443 9.92014V6.48633H226.573V7.90273C226.573 9.01719 225.664 9.92014 224.542 9.92014H214.443ZM214.443 17.7345V14.5676H225.174V17.7345H214.443ZM214.443 26.0214V22.5584H223.948C225.448 22.5584 226.663 23.7662 226.663 25.2541V26.0214H214.443Z" fill="#36621F"/>
<path d="M235.702 26.4327C234.649 26.4327 233.7 26.3335 232.855 26.1366C232.01 25.9396 231.28 25.6537 230.665 25.2788C230.049 24.9039 229.552 24.4547 229.174 23.9324C228.797 23.4102 228.538 22.8326 228.398 22.2009L230.026 21.5183C230.818 21.1871 231.734 21.3899 232.307 22.0259L232.317 22.0376C232.664 22.4227 233.147 22.729 233.763 22.9551C234.378 23.1827 235.123 23.295 235.999 23.295C236.893 23.295 237.588 23.1622 238.084 22.8953C238.581 22.6284 238.829 22.2491 238.829 21.756C238.829 21.3812 238.69 21.085 238.412 20.8677C238.133 20.6503 237.732 20.4636 237.204 20.3046C236.677 20.1471 236.026 19.9895 235.252 19.8305C234.516 19.6934 233.772 19.5155 233.017 19.2981C232.262 19.0808 231.551 18.7948 230.885 18.4404C230.22 18.0859 229.693 17.6162 229.306 17.0342C228.918 16.4522 228.725 15.717 228.725 14.8286C228.725 13.8804 228.979 13.0577 229.485 12.3575C229.992 11.6574 230.747 11.1001 231.75 10.6859C232.754 10.2716 233.961 10.0645 235.371 10.0645C236.662 10.0645 237.791 10.238 238.754 10.5823C239.718 10.928 240.517 11.4211 241.154 12.0629C241.79 12.7047 242.208 13.4691 242.406 14.356L240.709 14.922C239.869 15.202 238.96 14.9249 238.377 14.2626C238.374 14.2597 238.371 14.2553 238.368 14.2524C238.059 13.9067 237.653 13.6412 237.146 13.453C236.639 13.2663 236.047 13.1715 235.373 13.1715C234.538 13.1715 233.882 13.3101 233.406 13.5858C232.929 13.8629 232.691 14.2364 232.691 14.7105C232.691 15.0853 232.843 15.3917 233.152 15.628C233.46 15.8643 233.892 16.0525 234.449 16.191C235.006 16.3296 235.661 16.4872 236.416 16.6651C237.191 16.8227 237.955 17.005 238.71 17.2121C239.465 17.4193 240.151 17.6862 240.767 18.0115C241.382 18.3368 241.87 18.7773 242.227 19.3287C242.584 19.8816 242.763 20.6022 242.763 21.4891C242.763 22.516 242.49 23.4044 241.943 24.1527C241.397 24.9025 240.596 25.4699 239.543 25.855C238.493 26.2401 237.21 26.4327 235.702 26.4327Z" fill="#36621F"/>
<path d="M252.849 26.4327C251.498 26.4327 250.32 26.2401 249.318 25.855C248.315 25.4699 247.481 24.9229 246.815 24.2125C246.15 23.5021 245.643 22.659 245.295 21.6816C244.947 20.7043 244.773 19.6249 244.773 18.4404C244.773 17.2165 244.948 16.0919 245.295 15.0664C245.642 14.0409 246.154 13.1569 246.83 12.4174C247.506 11.6778 248.34 11.1001 249.333 10.6859C250.326 10.2716 251.458 10.0645 252.73 10.0645C254.003 10.0645 255.11 10.2716 256.055 10.6859C256.998 11.1001 257.769 11.6763 258.364 12.4174C258.96 13.1569 259.357 14.0205 259.556 15.0066L257.532 15.6717C256.595 15.9795 255.59 15.5696 255.094 14.7236C255.091 14.7192 255.088 14.7148 255.087 14.7105C254.828 14.2772 254.48 13.9461 254.044 13.7185C253.606 13.4924 253.089 13.3786 252.494 13.3786C251.958 13.3786 251.48 13.4881 251.063 13.7039C250.646 13.9213 250.288 14.2466 249.991 14.6813C249.693 15.116 249.47 15.6338 249.321 16.2348C249.173 16.8358 249.098 17.5229 249.098 18.2916C249.098 19.3565 249.242 20.255 249.53 20.9858C249.818 21.7167 250.245 22.2783 250.812 22.6736C251.379 23.0689 252.078 23.2658 252.913 23.2658C253.707 23.2658 254.339 23.1083 254.805 22.7932C255.272 22.4781 255.624 22.0828 255.862 21.6087C255.865 21.6043 255.867 21.6 255.87 21.5941C256.284 20.7627 257.196 20.3017 258.108 20.5015L260.035 20.926C259.935 21.6962 259.727 22.4168 259.41 23.0864C259.091 23.7574 258.638 24.3438 258.054 24.8471C257.468 25.3503 256.746 25.7398 255.893 26.0155C255.035 26.2941 254.022 26.4327 252.849 26.4327Z" fill="#36621F"/>
<path d="M266.243 26.4351C265.348 26.4351 264.564 26.2615 263.888 25.9173C263.213 25.5715 262.687 25.0741 262.309 24.4221C261.932 23.77 261.742 22.9721 261.742 22.0239C261.742 21.1764 261.907 20.4602 262.234 19.8782C262.562 19.2962 263.05 18.8279 263.694 18.472C264.341 18.1175 265.121 17.8214 266.034 17.5836C266.948 17.3473 268.022 17.1402 269.253 16.9622C269.868 16.863 270.379 16.7697 270.788 16.6807C271.195 16.5917 271.499 16.4429 271.697 16.2372C271.895 16.0301 271.995 15.7296 271.995 15.3343C271.995 14.7814 271.797 14.3088 271.399 13.9135C271.001 13.5197 270.365 13.3213 269.491 13.3213C268.934 13.3213 268.412 13.4146 267.926 13.6013C267.439 13.7895 267.021 14.0856 266.675 14.4897C266.672 14.4941 266.667 14.4985 266.664 14.5014C265.961 15.3285 264.85 15.6888 263.809 15.3708L262.13 14.8587C262.368 14.0492 262.706 13.349 263.144 12.7567C263.58 12.1645 264.117 11.6671 264.753 11.2616C265.389 10.8575 266.124 10.5555 266.96 10.3586C267.794 10.1617 268.678 10.0625 269.613 10.0625C271.123 10.0625 272.359 10.3047 273.323 10.7875C274.287 11.2703 275.006 12.0216 275.484 13.0368C275.961 14.0535 276.199 15.3606 276.199 16.9593V19.5937C276.199 20.2852 276.214 20.9897 276.245 21.7103C276.274 22.4309 276.32 23.1515 276.378 23.8707C276.439 24.5913 276.508 25.3061 276.587 26.0165H274.453C273.474 26.0165 272.655 25.2842 272.55 24.32C272.55 24.3141 272.549 24.3068 272.549 24.301C272.478 23.6504 272.424 23.0086 272.384 22.377H271.878C271.579 23.1063 271.173 23.7832 270.655 24.4046C270.138 25.026 269.508 25.519 268.762 25.8852C268.016 26.2528 267.177 26.4351 266.243 26.4351ZM268.06 23.3572C268.418 23.3572 268.794 23.2887 269.192 23.1501C269.589 23.0115 269.968 22.8204 270.325 22.5724C270.682 22.3259 271.02 22.0152 271.339 21.6403C271.656 21.2654 271.895 20.8409 272.054 20.3683V17.9118L272.709 18.03C272.371 18.2867 271.96 18.488 271.472 18.6368C270.986 18.7842 270.488 18.8994 269.981 18.9767C269.474 19.0555 268.974 19.1444 268.476 19.2436C267.979 19.3428 267.531 19.4654 267.135 19.6142C266.736 19.7615 266.428 19.9745 266.211 20.2502C265.992 20.5259 265.883 20.9007 265.883 21.3748C265.883 21.986 266.081 22.4703 266.479 22.8248C266.877 23.1793 267.405 23.3572 268.06 23.3572Z" fill="#36621F"/>
<path d="M279.977 30.9634V18.3835V10.4802H283.553V14.8009L284.06 14.8301C284.258 13.7842 284.582 12.906 285.03 12.1956C285.476 11.4852 286.058 10.9528 286.773 10.5969C287.489 10.2424 288.313 10.0645 289.247 10.0645C290.638 10.0645 291.829 10.4043 292.824 11.0856C293.817 11.7668 294.577 12.7237 295.103 13.9563C295.629 15.1904 295.894 16.6462 295.894 18.3222C295.894 19.8612 295.654 21.2382 295.178 22.4518C294.701 23.6655 293.996 24.6326 293.062 25.3532C292.127 26.0724 290.945 26.4341 289.516 26.4341C288.521 26.4341 287.682 26.246 286.996 25.8711C286.31 25.4962 285.745 24.9681 285.298 24.2869C284.85 23.6057 284.479 22.783 284.181 21.8158H283.614C283.733 22.3483 283.837 22.8968 283.926 23.4584C284.016 24.0214 284.095 24.5641 284.164 25.0863C284.233 25.61 284.269 26.1176 284.269 26.6106V28.2298C284.269 29.7381 283.038 30.9605 281.519 30.9605H279.977V30.9634ZM288.025 23.031C288.74 23.031 289.345 22.8384 289.843 22.4533C290.34 22.0682 290.727 21.5168 291.005 20.7962C291.283 20.0756 291.422 19.2616 291.422 18.3543C291.422 17.3682 291.278 16.5193 290.99 15.8089C290.702 15.0985 290.3 14.5515 289.783 14.1664C289.266 13.7813 288.661 13.5887 287.964 13.5887C287.309 13.5887 286.747 13.7273 286.28 14.003C285.813 14.2801 285.431 14.6448 285.132 15.0985C284.834 15.5536 284.615 16.0408 284.477 16.5645C284.338 17.0882 284.269 17.5856 284.269 18.0597V18.6227C284.269 18.9976 284.319 19.3871 284.417 19.7912C284.517 20.1952 284.671 20.5905 284.88 20.9756C285.088 21.3607 285.341 21.7064 285.639 22.0113C285.937 22.3176 286.29 22.5642 286.697 22.7509C287.105 22.9361 287.547 23.031 288.025 23.031Z" fill="#36621F"/>
<path d="M306.277 26.4351C305.005 26.4351 303.862 26.2572 302.848 25.9027C301.835 25.5482 300.98 25.0348 300.285 24.3637C299.589 23.6927 299.059 22.8686 298.691 21.8927C298.323 20.9153 298.141 19.7965 298.141 18.5333C298.141 17.2904 298.32 16.1497 298.677 15.114C299.035 14.0784 299.54 13.1856 300.197 12.4358C300.852 11.6861 301.678 11.104 302.671 10.6898C303.664 10.2755 304.757 10.0684 305.949 10.0684C307.182 10.0684 308.26 10.2653 309.184 10.6606C310.108 11.0559 310.877 11.6321 311.493 12.3921C312.108 13.1521 312.567 14.0842 312.863 15.1899C313.162 16.2956 313.27 17.5866 313.191 19.0672L300.911 19.1561V16.847L310.717 16.7288L309.226 17.8841C309.345 16.8587 309.266 16.0097 308.988 15.3387C308.709 14.6677 308.302 14.1688 307.766 13.8435C307.23 13.5182 306.644 13.3548 306.008 13.3548C305.253 13.3548 304.596 13.5576 304.041 13.9617C303.484 14.3657 303.042 14.9492 302.715 15.7077C302.387 16.4677 302.223 17.3809 302.223 18.4457C302.223 20.1422 302.59 21.3807 303.326 22.1596C304.06 22.9386 305.034 23.3281 306.248 23.3281C306.804 23.3281 307.276 23.2537 307.664 23.1063C308.051 22.959 308.374 22.7665 308.633 22.5287C308.892 22.2924 309.094 22.0254 309.244 21.7293C309.246 21.7264 309.247 21.7235 309.248 21.7206C309.503 21.2158 310.059 20.9358 310.616 21.0554L313.344 21.6403C313.165 22.3711 312.902 23.0319 312.553 23.6242C312.205 24.2164 311.744 24.7197 311.167 25.1339C310.591 25.5482 309.901 25.8691 309.096 26.0952C308.288 26.3213 307.349 26.4351 306.277 26.4351Z" fill="#36621F"/>
</svg>
