<svg width="192" height="192" viewBox="0 0 192 192" fill="none" xmlns="http://www.w3.org/2000/svg">
<circle cx="96" cy="96" r="96" fill="white"/>
<path d="M96.6269 97.4083L82.6745 112.257L113.876 144H101.034C94.308 144 87.8515 141.353 83.0583 136.629L58.3222 112.255L84.7032 85.8861L70.2436 71.2936L42.2359 99.3584C37.4312 104.173 30.9085 106.88 24.1071 106.88H11.3906L70.2436 48L96.6246 73.8564L122.754 48L180.591 106.88H168.292C161.395 106.88 154.79 104.098 149.969 99.1617L122.754 71.2959L108.041 85.8884L146.853 125.057H134.516C127.641 125.057 121.057 122.293 116.238 117.387L96.6269 97.4083Z" fill="#36621F"/>
</svg>
